<?xml version="1.0" encoding="UTF-8" standalone="no"?>
<!-- Created with Inkscape (http://www.inkscape.org/) -->

<svg
   xmlns:dc="http://purl.org/dc/elements/1.1/"
   xmlns:cc="http://creativecommons.org/ns#"
   xmlns:rdf="http://www.w3.org/1999/02/22-rdf-syntax-ns#"
   xmlns:svg="http://www.w3.org/2000/svg"
   xmlns="http://www.w3.org/2000/svg"
   version="1.1"
   width="119"
   height="128"
   id="svg10724">
  <metadata
     id="metadata10730">
    <rdf:RDF>
      <cc:Work
         rdf:about="">
        <dc:format>image/svg+xml</dc:format>
        <dc:type
           rdf:resource="http://purl.org/dc/dcmitype/StillImage" />
        <dc:title></dc:title>
      </cc:Work>
    </rdf:RDF>
  </metadata>
  <defs
     id="defs10728" />
  <path
     d="m 35.5,120 0,-8 -8,0 -8,0 0,-8 0,-8 4,0 c 4,0 4,0 4,-4 0,-4 0,-4 -4,-4 -4,0 -4,0 -4,-4 0,-4 0,-4 -4,-4 -4,0 -4,0 -4,-4 0,-4 0,-4 -4,-4 l -4,0 0,-16 0,-16 4,0 4,0 0,-16 0,-16 4,0 c 4,0 4,0 4,-4 l 0,-4 12,0 12,0 0,4 c 0,4 0,4 4,4 4,0 4,0 4,4 l 0,4 8,0 8,0 0,-4 c 0,-4 0,-4 4,-4 4,0 4,0 4,-4 l 0,-4 12,0 12,0 0,4 c 0,4 0,4 4,4 l 4,0 0,16 0,16 4,0 4,0 0,16 0,16 -4,0 c -4,0 -4,0 -4,4 0,4 0,4 -4,4 -4,0 -4,0 -4,4 0,4 0,4 -4,4 -4,0 -4,0 -4,4 0,4 0,4 4,4 l 4,0 0,8 0,8 -8,0 -8,0 0,8 0,8 -8,0 -8,0 0,-4 0,-4 -8,0 -8,0 0,4 0,4 -8,0 -8,0 0,-8 z m 16,-4 0,-4 8,0 8,0 0,4 c 0,4 0,4 4,4 l 4,0 0,-12 0,-12 4,0 c 4,0 4,0 4,4 0,4 0,4 4,4 4,0 4,0 4,-4 0,-4 0,-4 -4,-4 -4,0 -4,0 -4,-4 l 0,-4 -24,0 -24,0 0,4 c 0,4 0,4 -4,4 -4,0 -4,0 -4,4 0,4 0,4 4,4 4,0 4,0 4,-4 0,-4 0,-4 4,-4 l 4,0 0,12 0,12 4,0 c 4,0 4,0 4,-4 z m 0,-40 0,-4 8,0 8,0 0,4 0,4 16,0 16,0 0,-4 c 0,-4 0,-4 4,-4 l 4,0 0,-16 0,-16 -4,0 c -4,0 -4,0 -4,-4 l 0,-4 -40,0 -40,0 0,4 c 0,4 0,4 -4,4 l -4,0 0,16 0,16 4,0 c 4,0 4,0 4,4 l 0,4 16,0 16,0 0,-4 z m -32,-20 0,-16 12,0 12,0 0,4 c 0,4 0,4 4,4 l 4,0 0,8 0,8 -4,0 c -4,0 -4,0 -4,4 l 0,4 -12,0 -12,0 0,-16 z m 24,0 0,-8 -4,0 -4,0 0,8 0,8 4,0 4,0 0,-8 z m 24,0 0,-16 12,0 12,0 0,4 c 0,4 0,4 4,4 l 4,0 0,8 0,8 -4,0 c -4,0 -4,0 -4,4 l 0,4 -12,0 -12,0 0,-16 z m 24,0 0,-8 -4,0 -4,0 0,8 0,8 4,0 4,0 0,-8 z"
     id="path10734"
     style="fill:#000000" />
</svg>
